<svg width="1344" height="544" viewBox="0 0 1344 544" fill="none" xmlns="http://www.w3.org/2000/svg">
<g clip-path="url(#clip0_217_636)">
<g clip-path="url(#clip1_217_636)" filter="url(#filter0_f_217_636)">
<path opacity="0.15" d="M1278.19 237.88C1311.7 274.97 1338.88 339.451 1288.8 384.973C1283.63 389.666 1235.18 432.248 1162.3 426.96C1073.54 420.52 1055.34 350.812 957.382 332.716C851.298 313.119 789.037 379.425 737.231 359.056C675.971 334.97 668.451 205.071 779.331 149.396C912.906 82.3255 1188.08 138.151 1278.19 237.88Z" fill="#EBC136"/>
<path opacity="0.15" d="M443.245 429.639C474.307 410.569 508.155 372.148 487.134 333.285C484.966 329.278 464.262 292.654 415.679 283.834C356.505 273.09 327.162 316.52 259.092 311.996C185.375 307.096 161.688 252.301 122.971 257.114C77.1894 262.806 39.6268 348.21 97.5135 404.149C167.248 471.538 359.723 480.917 443.245 429.639Z" fill="#EBC136"/>
<path opacity="0.15" d="M625.575 321.89C610.187 300.799 594.464 260.221 607.947 222.859C609.337 219.007 622.519 183.857 648.878 178.297C680.983 171.526 694.013 216.799 730.481 216.823C769.973 216.849 785.817 163.774 806.122 171.155C830.131 179.883 845.044 267.57 810.945 319.508C769.865 382.075 666.953 378.602 625.575 321.89Z" fill="#EBC136"/>
<path opacity="0.15" d="M613.467 274.802C630.284 264.124 648.622 242.633 637.276 220.936C636.107 218.699 624.931 198.254 598.654 193.363C566.649 187.407 550.745 211.693 513.923 209.218C474.047 206.538 461.27 175.943 440.321 178.661C415.55 181.876 395.171 229.62 426.448 260.828C464.128 298.423 568.247 303.514 613.467 274.802Z" fill="#EBC136"/>
<path opacity="0.15" d="M1337.62 248.365C1355.76 232.046 1375.7 199.494 1363.95 167.192C1362.74 163.861 1351.14 133.43 1323.17 126.595C1289.09 118.269 1271.7 154.965 1232.42 151.946C1189.89 148.678 1176.75 103.066 1154.34 107.534C1127.83 112.818 1105.28 184.751 1138.15 230.934C1177.76 286.569 1288.86 292.244 1337.62 248.365Z" fill="#8047F8"/>
<path opacity="0.15" d="M1349.61 377.852C1363.71 388.804 1379.15 410.725 1369.84 432.622C1368.88 434.88 1359.7 455.511 1337.82 460.261C1311.16 466.047 1297.73 441.312 1267.03 443.533C1233.79 445.938 1223.35 476.841 1205.86 473.922C1185.17 470.471 1167.84 421.932 1193.71 390.552C1224.88 352.749 1311.69 348.404 1349.61 377.852Z" fill="#8047F8"/>
<path opacity="0.15" d="M150.937 136.892C163.507 158.616 175.932 200.056 163.695 237.492C162.433 241.351 150.5 276.558 128.055 281.502C100.717 287.524 90.6751 241.405 59.7918 240.442C26.347 239.4 11.7653 292.665 -5.26806 284.678C-25.4096 275.234 -36.117 186.175 -6.10017 134.53C30.0604 72.3152 117.139 78.4763 150.937 136.892Z" fill="#EBC136"/>
<path opacity="0.15" d="M792.507 432.947C766.621 413.727 741.462 375.18 767.926 336.528C770.654 332.543 796.434 296.123 843.6 287.62C901.048 277.262 921.109 320.78 985.841 316.683C1055.94 312.246 1087.66 257.712 1123.2 262.753C1165.23 268.713 1185.76 354.166 1121.71 409.631C1044.55 476.449 862.112 484.627 792.507 432.947Z" fill="#EBC136"/>
<path opacity="0.15" d="M718.922 399.538C740.564 380.513 763.249 343.904 745.967 310.187C744.185 306.71 727.248 274.989 691.43 269.962C647.805 263.84 628.654 304.687 578.868 304.695C524.953 304.704 504.92 256.808 476.979 263.46C443.939 271.327 420.942 350.444 465.931 397.321C520.129 453.792 660.728 450.695 718.922 399.538Z" fill="#8047F8"/>
<path opacity="0.15" d="M766.472 141.004C807.019 151.666 850.079 171.465 819.336 188.257C816.167 189.989 785.993 205.762 720.11 207.009C639.863 208.528 603.181 186.67 511.369 184.784C411.943 182.742 376.601 206.767 324.852 202.269C263.66 196.95 218.602 155.145 300 132.591C398.058 105.42 657.443 112.335 766.472 141.004Z" fill="#8047F8"/>
<path opacity="0.15" d="M99.1387 382.866C118.225 360.714 138.35 318.381 123.454 279.978C121.918 276.018 107.31 239.899 75.9801 234.685C37.82 228.335 20.7611 275.475 -22.8368 276.25C-70.0509 277.089 -87.2558 222.467 -111.771 230.526C-140.76 240.056 -161.458 331.145 -122.392 384.214C-75.3292 448.144 47.8163 442.431 99.1387 382.866Z" fill="#8047F8"/>
</g>
</g>
<defs>
<filter id="filter0_f_217_636" x="-256" y="-160" width="1760" height="864" filterUnits="userSpaceOnUse" color-interpolation-filters="sRGB">
<feFlood flood-opacity="0" result="BackgroundImageFix"/>
<feBlend mode="normal" in="SourceGraphic" in2="BackgroundImageFix" result="shape"/>
<feGaussianBlur stdDeviation="80" result="effect1_foregroundBlur_217_636"/>
</filter>
<clipPath id="clip0_217_636">
<rect width="1440" height="544" fill="white" transform="translate(-96)"/>
</clipPath>
<clipPath id="clip1_217_636">
<rect width="1440" height="544" fill="white" transform="translate(-96)"/>
</clipPath>
</defs>
</svg>
